<mxfile host="app.diagrams.net" modified="2023-09-19T01:14:42.198Z" agent="Mozilla/5.0 (Windows NT 10.0; Win64; x64; rv:109.0) Gecko/20100101 Firefox/117.0" etag="Ditj5H_WPrR9T3-IJ10U" version="21.7.5" type="github">
  <diagram name="Page-1" id="wCNQVOPu5u6QBf3pHomV">
    <mxGraphModel dx="880" dy="470" grid="1" gridSize="10" guides="1" tooltips="1" connect="1" arrows="1" fold="1" page="1" pageScale="1" pageWidth="850" pageHeight="1100" math="0" shadow="0">
      <root>
        <mxCell id="0" />
        <mxCell id="1" parent="0" />
      </root>
    </mxGraphModel>
  </diagram>
</mxfile>
